<svg xmlns="http://www.w3.org/2000/svg" xmlns:xlink="http://www.w3.org/1999/xlink" width="64" height="64"
     viewBox="0 0 64 64" fill="none">
    <g transform="scale(1.2) translate(-5,-5)">
        <path fill="rgba(0, 0, 0, 1)"
              d="M33 12.5L46 12.5C49.5899 12.5 52.5 15.4101 52.5 19L52.5 38C52.5 41.5899 49.5899 44.5 46 44.5L33 44.5C29.4102 44.5 26.5 41.5899 26.5 38L26.5 19C26.5 15.4101 29.4101 12.5 33 12.5ZM33 15.5C31.067 15.5 29.5 17.067 29.5 19L29.5 38C29.5 39.933 31.067 41.5 33 41.5L46 41.5C47.933 41.5 49.5 39.933 49.5 38L49.5 19C49.5 17.067 47.933 15.5 46 15.5L33 15.5Z">
        </path>
        <path fill="rgba(3, 120, 212, 1)"
              d="M23.0855 24.5L18 24.5C16.067 24.5 14.5 26.067 14.5 28L14.5 47C14.5 48.933 16.067 50.5 18 50.5L23.0855 50.5L32.3109 50.5C33.5199 50.5 34.5 49.5199 34.5 48.3109L37.5 48.3109C37.5 51.1767 35.1767 53.5 32.3109 53.5L23.0855 53.5L18 53.5C14.4101 53.5 11.5 50.5899 11.5 47L11.5 28C11.5 24.4101 14.4101 21.5 18 21.5L23.0855 21.5L23.0855 24.5Z">
        </path>
    </g>
</svg>
