<svg xmlns="http://www.w3.org/2000/svg" xmlns:xlink="http://www.w3.org/1999/xlink"
     width="64" height="64"
     viewBox="0 0 64 64" fill="none">

    <path stroke="rgba(0, 0, 0, 1)" stroke-width="4" d="M18 7L39 38">
    </path>
    <path stroke="rgba(0, 0, 0, 1)" stroke-width="4" d="M32 28L25 38">
    </path>
    <path d="M29 44.5C29 49.1944 24.9706 53 20 53C15.0294 53 11 49.1944 11 44.5C11 39.8056 15.0294 36 20 36C24.9706 36 29 39.8056 29 44.5ZM14.24 44.5C14.24 47.5044 16.8188 49.94 20 49.94C23.1812 49.94 25.76 47.5044 25.76 44.5C25.76 41.4956 23.1812 39.06 20 39.06C16.8188 39.06 14.24 41.4956 14.24 44.5Z"
          fill="#0078D4">
    </path>
    <path d="M53 44.5C53 49.1944 48.9706 53 44 53C39.0294 53 35 49.1944 35 44.5C35 39.8056 39.0294 36 44 36C48.9706 36 53 39.8056 53 44.5ZM38.24 44.5C38.24 47.5044 40.8188 49.94 44 49.94C47.1812 49.94 49.76 47.5044 49.76 44.5C49.76 41.4956 47.1812 39.06 44 39.06C40.8188 39.06 38.24 41.4956 38.24 44.5Z"
          fill="#0078D4">
    </path>
    <path stroke="rgba(0, 0, 0, 1)" stroke-width="4" d="M46 7L35 24">
    </path>
</svg>
