<svg xmlns="http://www.w3.org/2000/svg" xmlns:xlink="http://www.w3.org/1999/xlink" width="64" height="64" viewBox="0 0 64 64" fill="none">

<path   fill="rgba(0, 0, 0, 1)"  d="M14.4922 17.847L18.0317 52.3571C18.2148 54.1425 19.7187 55.5 21.5134 55.5L40.4866 55.5C42.2813 55.5 43.7852 54.1425 43.9683 52.3571L47.5078 17.847L50.4922 18.153L46.9527 52.6632C46.6126 55.9789 43.8197 58.5 40.4866 58.5L21.5134 58.5C18.1803 58.5 15.3874 55.9789 15.0473 52.6632L11.5078 18.153L14.4922 17.847Z">
</path>
<rect  x="8" y="16" width="46" height="3" rx="3"    fill="#000000" >
</rect>
<rect  x="28" y="28" width="18" height="3" transform="rotate(90 28 28)" rx="3"    fill="#000000" >
</rect>
<rect  x="37" y="28" width="18" height="3" transform="rotate(90 37 28)" rx="3"    fill="#000000" >
</rect>
<path d="M26.66 17C26.66 14.6031 28.6031 12.66 31 12.66C33.3969 12.66 35.34 14.6031 35.34 17L38 17C38 13.134 34.866 10 31 10C27.134 10 24 13.134 24 17L26.66 17Z"   fill="#000000" >
</path>
</svg>
