<svg xmlns="http://www.w3.org/2000/svg" xmlns:xlink="http://www.w3.org/1999/xlink" width="64" height="64"
     viewBox="0 0 64 64" fill="none">

    <path d="M55 32.5C55 44.9264 44.9264 55 32.5 55C20.0736 55 10 44.9264 10 32.5C10 20.0736 20.0736 10 32.5 10C44.9264 10 55 20.0736 55 32.5ZM12.925 32.5C12.925 43.311 21.689 52.075 32.5 52.075C43.311 52.075 52.075 43.311 52.075 32.5C52.075 21.689 43.311 12.925 32.5 12.925C21.689 12.925 12.925 21.689 12.925 32.5Z"
          fill="#1B1B1B">
    </path>
    <rect x="43" y="31" width="3"
          height="21"
          transform="rotate(90 43 31)"
          rx="2" fill="#0078D4">
    </rect>
    <rect x="31" y="22"
          width="3" height="21"
          rx="2" fill="#0078D4">
    </rect>
</svg>
