<svg xmlns="http://www.w3.org/2000/svg" xmlns:xlink="http://www.w3.org/1999/xlink" width="64" height="64" viewBox="0 0 64 64" fill="none">

<path   fill="rgba(3, 120, 212, 1)"  d="M34 22.5L48 22.5C51.0376 22.5 53.5 24.9624 53.5 28L53.5 51C53.5 54.0376 51.0376 56.5 48 56.5L34 56.5C30.9624 56.5 28.5 54.0376 28.5 51L28.5 28C28.5 24.9624 30.9624 22.5 34 22.5ZM34 25.5C32.6193 25.5 31.5 26.6193 31.5 28L31.5 51C31.5 52.3807 32.6193 53.5 34 53.5L48 53.5C49.3807 53.5 50.5 52.3807 50.5 51L50.5 28C50.5 26.6193 49.3807 25.5 48 25.5L34 25.5Z">
</path>
<path   fill="rgba(0, 0, 0, 1)"  d="M21.0878 13.5L16 13.5C14.6193 13.5 13.5 14.6193 13.5 16L13.5 51C13.5 52.3807 14.6193 53.5 16 53.5L25.0083 53.5L25.0083 56.5L16 56.5C12.9624 56.5 10.5 54.0376 10.5 51L10.5 16C10.5 12.9624 12.9624 10.5 16 10.5L21.0878 10.5L21.0878 13.5ZM37.1792 10.5L42 10.5C45.0376 10.5 47.5 12.9624 47.5 16L47.5 19.1013L44.5 19.1013L44.5 16C44.5 14.6193 43.3807 13.5 42 13.5L37.1792 13.5L37.1792 10.5Z">
</path>
<path   fill="rgba(0, 0, 0, 1)"  d="M24.5 7.5L33.5 7.5C36.2614 7.5 38.5 9.73858 38.5 12.5C38.5 15.2614 36.2614 17.5 33.5 17.5L24.5 17.5C21.7386 17.5 19.5 15.2614 19.5 12.5C19.5 9.73858 21.7386 7.5 24.5 7.5ZM24.5 10.5C23.3954 10.5 22.5 11.3954 22.5 12.5C22.5 13.6046 23.3954 14.5 24.5 14.5L33.5 14.5C34.6046 14.5 35.5 13.6046 35.5 12.5C35.5 11.3954 34.6046 10.5 33.5 10.5L24.5 10.5Z">
</path>
</svg>
