<svg xmlns="http://www.w3.org/2000/svg" xmlns:xlink="http://www.w3.org/1999/xlink" width="64" height="64"
     viewBox="0 0 64 64" fill="none">

    <path fill="rgba(0, 0, 0, 1)"
          d="M34.7807 17.5L14 17.5C12.6193 17.5 11.5 18.6193 11.5 20L11.5 44C11.5 45.3807 12.6193 46.5 14 46.5L34.7807 46.5L34.7807 49.5L14 49.5C10.9624 49.5 8.5 47.0376 8.5 44L8.5 20C8.5 16.9624 10.9624 14.5 14 14.5L34.7807 14.5L34.7807 17.5ZM44.5821 14.5L50 14.5C53.0376 14.5 55.5 16.9624 55.5 20L55.5 44C55.5 47.0376 53.0376 49.5 50 49.5L44.5821 49.5L44.5821 46.5L50 46.5C51.3807 46.5 52.5 45.3807 52.5 44L52.5 20C52.5 18.6193 51.3807 17.5 50 17.5L44.5821 17.5L44.5821 14.5Z">
    </path>
    <rect x="32" y="8" width="15" height="3" rx="2" fill="#0078D4">
    </rect>
    <rect x="32" y="53" width="15" height="3" rx="2" fill="#0078D4">
    </rect>
    <rect x="38" y="10" width="3" height="44" fill="#0078D4">
    </rect>
    <g>
        <path fill="#0078D4"
              d="M28.575 35.29L19.365 35.29L17.085 41.5L14.325 41.5L22.215 20.68L25.815 20.68L33.675 41.5L30.825 41.5L28.575 35.29ZM27.705 32.89L24.195 23.2L23.835 23.2L20.265 32.89L27.705 32.89Z">
        </path>
    </g>
</svg>
